<svg version="1.1" id="Layer_1" xmlns="http://www.w3.org/2000/svg" xmlns:xlink="http://www.w3.org/1999/xlink" viewBox="0 0 511.999 511.999" xml:space="preserve" fill="#ffffff" transform="rotate(0)matrix(1, 0, 0, 1, 0, 0)" stroke="#ffffff">

<g id="SVGRepo_bgCarrier" stroke-width="0"></g>

<g id="SVGRepo_tracerCarrier" stroke-linecap="round" stroke-linejoin="round"></g>

<g id="SVGRepo_iconCarrier"> 
    <path style="fill:#0068FF;" d="M495.311,201.616c0,105.474-85.504,190.978-190.978,190.978 c-105.475,0-190.979-85.504-190.979-190.978L495.311,201.616L495.311,201.616z"></path> 
    <path style="fill:#10BAFC;" d="M304.334,10.447v191.169l95.287-165.731C363.495,55.712,318.772,40.531,304.334,10.447z"></path> 
    
    <rect x="16.687" y="148.05" style="fill:#f2f2f2;" width="96.664" height="29.477"></rect> 
    
    <path style="fill:#0068FF;" d="M399.621,35.885l-95.287,165.731l165.014-96.37C430.807,105.247,399.621,74.224,399.621,35.885z"></path> 
    
    <path style="fill:#10BAFC;" d="M469.348,105.247l-165.014,96.37H495.31v-0.001C462.422,184.543,450.889,143.514,469.348,105.247z"></path> 
    
    <path d="M304.554,365.19h-0.22c-5.77,0-10.449-4.678-10.449-10.449c0-5.771,4.679-10.449,10.449-10.449h0.22 c5.77,0,10.449,4.678,10.449,10.449C315.003,360.512,310.324,365.19,304.554,365.19z"></path> 
    
    <path d="M337.95,361.488c-4.783,0-9.097-3.305-10.186-8.166c-1.262-5.631,2.28-11.219,7.911-12.48 c39.42-8.834,73.401-34.208,93.233-69.617c2.819-5.034,9.186-6.828,14.222-4.011c5.034,2.82,6.83,9.188,4.01,14.222 c-22.728,40.584-61.69,69.669-106.896,79.798C339.476,361.405,338.707,361.488,337.95,361.488z"></path> 
    
    <path d="M409.187,395.092c-19.176,0-36.221,9.283-46.887,23.589l-29.44-11.632l45.253-18.007c0.092-0.036,0.177-0.082,0.267-0.12 c74.533-29.566,127.379-102.372,127.379-187.304c0-4.034-2.29-7.528-5.639-9.27c0.001-0.001,0.001-0.003,0.002-0.005 c-27.896-14.481-37.08-49.973-21.364-82.555c1.997-4.139,1.055-9.096-2.321-12.214c-1.98-1.83-4.524-2.766-7.091-2.767 c0-0.002,0-0.004,0-0.007c-32.685,0-59.277-26.428-59.277-58.912c0-4.732-3.181-8.874-7.754-10.095 c-2.625-0.701-5.331-0.333-7.607,0.879c-0.039,0.02-0.075,0.033-0.115,0.056c-9.126,5.008-19.499,7.656-29.997,7.656 c-22.242,0-42.675-11.435-50.843-28.455c-2.112-4.397-6.986-6.747-11.738-5.668c-4.756,1.083-8.13,5.311-8.13,10.189v180.72H123.804 v-43.117c0-5.771-4.679-10.449-10.449-10.449H16.687c-5.771,0-10.449,4.678-10.449,10.449v29.473 c0,5.771,4.678,10.449,10.449,10.449h86.219v13.643c0,85.199,53.174,158.209,128.075,187.598c0.031,0.014,0.062,0.029,0.094,0.043 l45.26,17.897l-29.171,11.525c-10.664-14.306-27.712-23.589-46.887-23.589c-32.233,0-58.455,26.223-58.455,58.454 s26.223,58.453,58.455,58.453s58.453-26.223,58.453-58.453c0-5.583-0.804-10.979-2.272-16.096l48.092-19.137l48.448,19.158 c-1.464,5.111-2.265,10.499-2.265,16.075c0,32.231,26.222,58.453,58.453,58.453c32.233,0,58.455-26.223,58.455-58.453 C467.642,421.314,441.419,395.092,409.187,395.092z M102.906,167.076h-75.77v-8.575h75.77V167.076z M200.277,491.1 c-20.709,0-37.557-16.847-37.557-37.555s16.848-37.556,37.557-37.556c20.708,0,37.555,16.848,37.555,37.556 C237.831,474.253,220.985,491.1,200.277,491.1z M466.549,191.167H342.945l82.319-48.076l26.036-15.205 C447.524,151.317,453.072,174.08,466.549,191.167z M394.793,65.248c8.185,20.521,24.686,36.89,45.337,44.962l-107.175,62.591 L394.793,65.248z M314.783,38.837c13.591,10.32,31.304,16.441,49.814,16.441c4.143,0,8.272-0.309,12.349-0.92L314.783,162.48V38.837 z M304.334,382.147c-96.039,0-174.803-75.378-180.231-170.08h360.462C479.135,306.769,400.372,382.147,304.334,382.147z M409.187,491.1c-20.708,0-37.555-16.847-37.555-37.555s16.847-37.556,37.555-37.556c20.709,0,37.557,16.848,37.557,37.556 C446.744,474.253,429.896,491.1,409.187,491.1z"></path> 
    
</g>
</svg>